<svg xmlns="http://www.w3.org/2000/svg" width="16" height="17" viewBox="0 0 16 17"><defs><style>.cls-1{fill:#1d1d1b;}.cls-2,.cls-3{fill:none;}.cls-2{stroke:#1d1d1b;stroke-miterlimit:10;stroke-width:0.25px;}</style></defs><g id="Layer_5" data-name="Layer 5"><path class="cls-1" d="M.29,6.28.4,6c.09-.24.15-.4.19-.48A1.42,1.42,0,0,1,1,5a.88.88,0,0,1,.46-.18,1,1,0,0,1,.5.1,1,1,0,0,1,.32.2.7.7,0,0,1,.19.27.77.77,0,0,1,.06.3,1.26,1.26,0,0,1,0,.28c0,.08-.07.19-.13.33L2,7,1.94,7l0-.07a.3.3,0,0,0,0-.17.12.12,0,0,0-.06-.09,2.35,2.35,0,0,0-.27-.13L.84,6.19a1.66,1.66,0,0,0-.27-.11.11.11,0,0,0-.1,0,.39.39,0,0,0-.1.16l0,0Zm.27-.51,1.14.49L2,6.4a.12.12,0,0,0,.12,0s.08-.08.12-.19a1.12,1.12,0,0,0,.1-.39.6.6,0,0,0-.14-.35,1.07,1.07,0,0,0-.42-.29,1.4,1.4,0,0,0-.41-.11.79.79,0,0,0-.35,0,.74.74,0,0,0-.25.17,1.41,1.41,0,0,0-.18.31C.61,5.64.58,5.7.56,5.77Z"/><path class="cls-1" d="M3.42,3.62l-.54.46,0,.12a1.07,1.07,0,0,0,.13.32.13.13,0,0,0,.13.06.2.2,0,0,0,.14-.06l0,.05-.42.36,0,0A.29.29,0,0,0,3,4.7a1.09,1.09,0,0,0-.07-.32.91.91,0,0,1-.06-.16L2.43,2.88l0,0,1.44.73.19.09a.27.27,0,0,0,.12,0,.29.29,0,0,0,.15-.06l0,.05-.56.48,0,0A.41.41,0,0,0,3.93,4a.08.08,0,0,0,0-.09l-.17-.09Zm-.06,0-.77-.39L2.86,4Z"/><path class="cls-1" d="M5.55,3.31l-.08,0L4.36,2.15A.65.65,0,0,1,4.27,2a.54.54,0,0,0-.17-.13.37.37,0,0,0-.2,0l0-.06.76-.27,0,.06a.72.72,0,0,0-.18.09.08.08,0,0,0,0,.1L4.58,2,5.5,3l.06-1.12a.87.87,0,0,0,0-.35c0-.1-.12-.13-.26-.08l0-.06.53-.19,0,.06a.24.24,0,0,0-.13.11.53.53,0,0,0,0,.2l0,.32Z"/><path class="cls-1" d="M6.89,1.14V1.07l.86,0v.06h0a.36.36,0,0,0-.18,0s0,0,0,.09a1.29,1.29,0,0,0,0,.29l0,.92a2.31,2.31,0,0,0,0,.28.12.12,0,0,0,.06.1.34.34,0,0,0,.17,0h.05V2.9L7,2.94V2.88H7a.3.3,0,0,0,.16,0,.21.21,0,0,0,.06-.1s0-.14,0-.3l0-.92a2.31,2.31,0,0,0,0-.28q0-.07-.06-.09a.39.39,0,0,0-.18,0Z"/><path class="cls-1" d="M10.05,3.32l-.86-2L8.88,2.56a.8.8,0,0,0,0,.21.2.2,0,0,0,.07.11.53.53,0,0,0,.2.1V3l-.68-.17,0-.06h.21l.1-.06a1.19,1.19,0,0,0,.06-.21l.24-1a1.91,1.91,0,0,0,0-.29.11.11,0,0,0,0-.1.4.4,0,0,0-.18-.07V1.06l.54.13.72,1.69.27-1.09a.39.39,0,0,0,0-.17.19.19,0,0,0-.08-.1.49.49,0,0,0-.18-.08V1.38l.66.16v.07a.42.42,0,0,0-.19,0,.23.23,0,0,0-.11.07.53.53,0,0,0-.06.16l-.37,1.5Z"/><path class="cls-1" d="M12.65,4.09l0,0-.4.51,0,0a.54.54,0,0,0,0-.21.79.79,0,0,1-.67-.17.86.86,0,0,1-.35-.61.91.91,0,0,1,.22-.7,1.2,1.2,0,0,1,.41-.33.79.79,0,0,1,.49-.08,1,1,0,0,1,.44.2.76.76,0,0,1,.24.3.83.83,0,0,1,.08.31.8.8,0,0,0,.21-.15l.05,0L13,3.77l-.05,0a.77.77,0,0,0,.13-.57.66.66,0,0,0-.25-.38.55.55,0,0,0-.51-.11,1.19,1.19,0,0,0-.56.43,1,1,0,0,0-.25.62.57.57,0,0,0,.23.47.74.74,0,0,0,.28.14.61.61,0,0,0,.35,0A1.12,1.12,0,0,0,12.65,4.09Z"/><path class="cls-1" d="M13.61,4.89a.86.86,0,0,1,.75,0,1,1,0,0,1,.51.57,1,1,0,0,1,0,.77.85.85,0,0,1-.54.54.92.92,0,0,1-.76,0,1,1,0,0,1-.52-.58,1,1,0,0,1,0-.78A.92.92,0,0,1,13.61,4.89Zm.11.29a1.21,1.21,0,0,0-.57.42.68.68,0,0,0,0,.59.64.64,0,0,0,.39.38,1.06,1.06,0,0,0,.7-.08,1.07,1.07,0,0,0,.55-.42.63.63,0,0,0,0-.57.64.64,0,0,0-.4-.4A1.09,1.09,0,0,0,13.72,5.18Z"/><path class="cls-1" d="M14.91,11.21l-.12.28q-.15.36-.21.48a1.46,1.46,0,0,1-.39.53.91.91,0,0,1-.46.16,1.15,1.15,0,0,1-.5-.12,1.07,1.07,0,0,1-.32-.22.91.91,0,0,1-.18-.27.78.78,0,0,1,0-.3,1.08,1.08,0,0,1,.05-.28l.14-.33.37-.75.05,0,0,.07a.23.23,0,0,0,0,.16.14.14,0,0,0,0,.1l.27.14.81.39a2.08,2.08,0,0,0,.27.12.12.12,0,0,0,.1,0s.06-.07.1-.15l0-.05Zm-.28.5-1.13-.54a2.31,2.31,0,0,0-.32-.15c-.06,0-.1,0-.13,0a.41.41,0,0,0-.13.18,1,1,0,0,0-.11.39.51.51,0,0,0,.12.35,1.05,1.05,0,0,0,.41.31,1.09,1.09,0,0,0,.41.13.76.76,0,0,0,.34,0,.68.68,0,0,0,.26-.16,1.4,1.4,0,0,0,.19-.31Z"/><path class="cls-1" d="M11.78,13.81l.51-.49,0-.12a2,2,0,0,0-.15-.32.14.14,0,0,0-.13-.05.23.23,0,0,0-.14.07l0-.05.4-.38.05,0a.31.31,0,0,0-.08.19,1,1,0,0,0,.09.31.64.64,0,0,1,.06.16l.49,1.32,0,0-1.47-.66-.19-.09-.13,0a.37.37,0,0,0-.14.07l0-.05.53-.5,0,0a.54.54,0,0,0-.12.14.06.06,0,0,0,0,.09s.06,0,.17.09Zm.06,0,.78.35-.3-.81Z"/><path class="cls-1" d="M9.67,14.18l.08,0,1.09,1.19.1.11a.31.31,0,0,0,.17.13.32.32,0,0,0,.19,0l0,.06-.76.26,0-.06a.47.47,0,0,0,.19-.09.09.09,0,0,0,0-.09.68.68,0,0,0-.12-.16l-.92-1-.07,1.12a1.18,1.18,0,0,0,0,.36c0,.1.12.12.27.08l0,.06-.54.18,0-.06a.23.23,0,0,0,.12-.1.43.43,0,0,0,.05-.21l0-.31Z"/><path class="cls-1" d="M8.15,16.24v.06l-.85-.05v-.07h0a.39.39,0,0,0,.18,0,.1.1,0,0,0,.06-.08,1,1,0,0,0,0-.29l0-.92c0-.14,0-.24,0-.28a.19.19,0,0,0,0-.11.3.3,0,0,0-.17,0h0v-.06l.85,0v.07h0a.54.54,0,0,0-.17,0A.13.13,0,0,0,8,14.6a2.86,2.86,0,0,0,0,.3l-.05.92c0,.15,0,.24,0,.28s0,.08,0,.1a.36.36,0,0,0,.18,0Z"/><path class="cls-1" d="M5.29,13.69,5.9,15.8l.46-1.21a.77.77,0,0,0,.06-.21s0-.07,0-.12a.52.52,0,0,0-.19-.12l0-.06.65.25,0,.06a.61.61,0,0,0-.21,0,.23.23,0,0,0-.11.05s0,.09-.09.2l-.35.93a1,1,0,0,0-.08.27.12.12,0,0,0,0,.11.57.57,0,0,0,.18.09l0,.06-.51-.2-.51-1.76-.4,1.05a.31.31,0,0,0,0,.17.2.2,0,0,0,.07.11.61.61,0,0,0,.16.09l0,.06-.63-.24,0-.06a.45.45,0,0,0,.19,0,.13.13,0,0,0,.11-.05s.05-.07.08-.15l.55-1.44Z"/><path class="cls-1" d="M2.83,12.64l-.05,0,.46-.47,0,0a.48.48,0,0,0-.07.2.77.77,0,0,1,.64.24.87.87,0,0,1,0,1.31,1.09,1.09,0,0,1-.45.29.83.83,0,0,1-.49,0A.91.91,0,0,1,2.5,14a.84.84,0,0,1-.21-.33.78.78,0,0,1,0-.32.61.61,0,0,0-.22.13L2,13.44l.49-.51,0,0a.8.8,0,0,0-.19.55.71.71,0,0,0,.21.41.54.54,0,0,0,.5.16,1.24,1.24,0,0,0,.6-.37,1,1,0,0,0,.32-.59.63.63,0,0,0-.45-.65.53.53,0,0,0-.35,0A.82.82,0,0,0,2.83,12.64Z"/><path class="cls-1" d="M1.94,11.87a.91.91,0,0,1-.76,0,1.09,1.09,0,0,1-.51-.58,1,1,0,0,1,0-.77A.88.88,0,0,1,1.19,10,.92.92,0,0,1,2,10a1,1,0,0,1,.52.58,1,1,0,0,1,0,.78A.93.93,0,0,1,1.94,11.87Zm-.11-.3a1.06,1.06,0,0,0,.56-.42.65.65,0,0,0,0-.58.61.61,0,0,0-.4-.38,1,1,0,0,0-.69.08,1.06,1.06,0,0,0-.55.41.65.65,0,0,0,0,.58.61.61,0,0,0,.41.39A1,1,0,0,0,1.83,11.57Z"/><path class="cls-2" d="M8.15,4.06V5.34a1.33,1.33,0,0,0,.36.86.9.9,0,0,1,.21.24,1.13,1.13,0,0,1,.15.42V13.3H6.58V6.66a.66.66,0,0,1,.1-.22A1,1,0,0,1,7,6.13a1,1,0,0,0,.29-.76l0-1.31"/><line class="cls-2" x1="7.26" y1="4.06" x2="8.18" y2="4.06"/><path class="cls-3" d="M7.8,8.64a.23.23,0,0,1-.15.07"/><path class="cls-3" d="M7.69,8.68h.06"/></g></svg>